<svg xmlns="http://www.w3.org/2000/svg" viewBox="0 0 248.5 242" width="248.5" height="242"><style>.st0{fill:#d0972a}.st1{fill:#b42025}.st2{fill:#d02027}.st3{fill:#fff}.st4{fill:#751919}</style><g id="Barn"><path d="M124.2 242c68.6 0 124.2-45.5 124.2-112.4 0-33.6-21.2-78.4-43.8-108.9V0L187 8.8l-27.7 14.3c25.3 18.6 33 73.1 33 102.7 0 38.7-29.4 72.8-67 72.8s-69.1-34.1-69.1-72.8c0-29.7 7.8-84.1 33-102.7L61.7 8.9l.1-.1L44.1 0v20.3C21.4 50.9 0 95.9 0 129.6 0 196.5 55.6 242 124.2 242zm85.8-65c-5.3 0-9.7-3.5-9.7-7.9s4.3-7.9 9.7-7.9c5.3 0 9.7 3.5 9.7 7.9 0 4.3-4.3 7.9-9.7 7.9zm19.4-58c0 4.4-4.3 7.9-9.7 7.9-5.3 0-9.7-3.5-9.7-7.9s4.3-7.9 9.7-7.9c5.4 0 9.7 3.5 9.7 7.9zm-24.2-53.1c5.3 0 9.7 3.5 9.7 7.9s-4.3 7.9-9.7 7.9c-5.3 0-9.7-3.5-9.7-7.9s4.4-7.9 9.7-7.9zM169 198.7c5.3 0 9.7 3.5 9.7 7.9s-4.3 7.9-9.7 7.9c-5.3 0-9.7-3.5-9.7-7.9s4.3-7.9 9.7-7.9zm-89.5 0c5.3 0 9.7 3.5 9.7 7.9s-4.3 7.9-9.7 7.9-9.7-3.5-9.7-7.9c.1-4.4 4.4-7.9 9.7-7.9zM38.4 177c-5.3 0-9.7-3.5-9.7-7.9s4.3-7.9 9.7-7.9c5.3 0 9.7 3.5 9.7 7.9 0 4.3-4.3 7.9-9.7 7.9zm4.9-111.1c5.3 0 9.7 3.5 9.7 7.9s-4.3 7.9-9.7 7.9c-5.3 0-9.7-3.5-9.7-7.9s4.3-7.9 9.7-7.9zm-14.5 45.2c5.3 0 9.7 3.5 9.7 7.9s-4.3 7.9-9.7 7.9-9.7-3.5-9.7-7.9 4.3-7.9 9.7-7.9z" class="st0"/><path d="M174.9 155H75.7v-47.8l17.7-28.4 31.9-14.2 31.9 14.2 17.7 28.4zm0-10.3V139m-99.2 0v5.7" class="st1"/><path d="M125.3 64.6l-5.2 2.3h10.4z" class="st2"/><path d="M147.7 114v-3H103v3h-.1l.1.1V155h44.7v-41zm-42.3 38.5V119l17 33.5h-17zm18.5-3.5l-18.1-35.6h18.1V149zm2.8 0v-35.6h18.1L126.7 149zm18.5 3.5h-17l17-33.5v33.5z" class="st3"/><path d="M116.4 83.7h17.8v17.8h-17.8z" class="st1"/><path d="M132.8 85.1v15h-15v-15h15m2.8-2.9H115v20.7h20.7V82.2h-.1z" class="st3"/><path d="M78.8 109l-6.1-3.7L91 76l34.3-15.3L159.6 76l18.3 29.3-6 3.7-17.1-27.4-29.5-13.1-29.4 13.1z" class="st4"/></g></svg>